<svg xmlns="http://www.w3.org/2000/svg" viewBox="0 0 512 512" width="100%" height="100%">
  <defs>
    <linearGradient id="orangeGrad" x1="0%" y1="0%" x2="100%" y2="100%">
      <stop offset="0%" stop-color="#FF6B00" />
      <stop offset="100%" stop-color="#FFA800" />
    </linearGradient>
    
    <filter id="subtle-shadow" x="-10%" y="-10%" width="120%" height="120%">
      <feDropShadow dx="0" dy="4" stdDeviation="6" flood-color="#000000" flood-opacity="0.15"/>
    </filter>
  </defs>

  <circle cx="256" cy="256" r="240" fill="#F8F9FA" filter="url(#subtle-shadow)" />

  <g transform="translate(20, 10)">
    <path d="M 280 110 
             C 170 110, 140 180, 140 250 
             C 140 320, 180 380, 260 380 
             C 280 380, 290 375, 295 370 
             L 256 420 
             L 217 380 
             C 120 370, 90 290, 90 240 
             C 90 150, 160 70, 290 70 
             C 360 70, 410 110, 420 160 
             L 380 175 
             C 370 140, 330 110, 280 110 Z" 
          fill="url(#orangeGrad)" />

    <circle cx="290" cy="70" r="14" fill="#FF6B00" />
    <circle cx="370" cy="95" r="12" fill="#FFA800" />
    <circle cx="420" cy="160" r="14" fill="#FF6B00" />
    <circle cx="102" cy="210" r="15" fill="#FF6B00" />
    <circle cx="140" cy="140" r="10" fill="#FFA800" />
    <circle cx="220" cy="90" r="11" fill="#FF6B00" />
    <circle cx="160" cy="350" r="13" fill="#FFA800" />
    <circle cx="210" cy="320" r="11" fill="#FF6B00" />
    <circle cx="300" cy="360" r="14" fill="#FF6B00" />
    <circle cx="340" cy="300" r="16" fill="#FFA800" />

    <path d="M 140 240 C 140 190, 200 150, 260 160" stroke="#FF8C00" stroke-width="8" fill="none" stroke-linecap="round" />
    <path d="M 170 290 C 200 330, 280 320, 310 270" stroke="#FF8C00" stroke-width="8" fill="none" stroke-linecap="round" />
    <circle cx="260" cy="160" r="10" fill="#FF6B00" />
    <circle cx="310" cy="270" r="12" fill="#FF4500" />
  </g>

  <circle cx="380" cy="390" r="32" fill="#17A2B8" />
</svg>
